<?xml version="1.0" encoding="utf-8"?>
<!-- Generator: Adobe Illustrator 26.0.3, SVG Export Plug-In . SVG Version: 6.00 Build 0)  -->
<svg version="1.1" id="Ebene_2_00000105405214381601350730000007542279152758199707_"
	 xmlns="http://www.w3.org/2000/svg" xmlns:xlink="http://www.w3.org/1999/xlink" x="0px" y="0px" viewBox="0 0 129.4 126.7"
	 style="enable-background:new 0 0 129.4 126.7;" xml:space="preserve">
<style type="text/css">
	.st0{fill:none;stroke:#DE6F85;stroke-width:2;}
	.st1{font-family:'Moret-Bold';}
	.st2{font-size:114.1179px;}
	.st3{letter-spacing:-2;}
</style>
<path class="st0" d="M62.6,92.4c0,0-12.4-1.1-6.3-15.4C62.4,62.8,54.2,62,51,58.6c-3.1-3.4-7.4-1.1-5-12.8
	c0.6-5.2,1.3-10.9-3.6-12.2"/>
<path class="st0" d="M33.6,61.2c0,0,5-5,2.3-14.6C34,39.2,27.4,25,34.1,28.9c5.7,2.1,6.2-0.6-3.6-7.2"/>
<path class="st0" d="M97.6,29.5c0,0,4.9,1.6,7.5,0.8c2.6-0.8,3.1-4.8,6.6-4c6.4,1.5,12.9,3.1,11,9.7c-1.5,4-4,3.2-5.3,7.1
	c-0.9,4.4,4.8,10.6,2.6,12c-3.1,2-4.3-6.9-8.5,4.7"/>
<path class="st0" d="M71.7,60.6c0-3.4-0.6-6.7-1.9-9.8c-1.9-4.3,4.7-4.4,4.3-7.6c-0.1-3.9-3-9.7-3-9.7"/>
<path class="st0" d="M70.4,90.6c0,0,7.3-6.8,7-12c-0.2-3.4-8.9-6.3-8.9-9.1c0-2.9,3.3-4.7,3.2-10"/>
<g>
	<text transform="matrix(1 0 0 1 2.9875 96.8179)" class="st0 st1 st2 st3">A</text>
	<text transform="matrix(1 0 0 1 64.7243 96.8179)" class="st0 st1 st2 st3">R</text>
</g>
<path class="st0" d="M19.9,72.9c0,0-6.2-1.5-11,1.9C5.1,77.3,17.4,90.4,23,96.2c0.9,0.9,0.9,2.5,0,3.4c-0.3,0.3-0.6,0.4-0.9,0.6
	c-6.4,2.2-18.5,6.1-13.7,1.3c6.5-6.3,8.6-11.5,8.8-14.8"/>
</svg>
